<svg xmlns="http://www.w3.org/2000/svg" version="1.1" xmlns:xlink="http://www.w3.org/1999/xlink" xmlns:svgjs="http://svgjs.dev/svgjs" width="100%" height="100%" viewBox="0 0 1000 600"><rect width="1000" height="600" x="0" y="0" fill="#ffa500"/><g><rect width="333.3333333333333" height="333.3333333333333" rx="13.333333333333334" ry="13.333333333333334" y="218.7008548712085" fill="#FF" transform="matrix(0.636201611296555,0,0,0.6362016112965548,0,54.82857827265016)" x="196.4786376953125"/><path d="M363.49348850827795 459.25968860339145L336.7789935853507 460.3675171843185Q335.89273072060905 459.48125431957686 335.89273072060905 457.04403144153724L335.89273072060905 457.04403144153724Q335.89273072060905 453.9104591697721 336.7789935853507 453.9104591697721L336.7789935853507 453.9104591697721Q338.77308503101943 453.9104591697721 342.12822301897 453.3723710018932Q345.45170876175126 452.80263058884503 348.33206307216165 451.694802007918Q351.2440696277414 450.5869734269908 351.6872010601122 449.4791448460638L351.6872010601122 449.4791448460638Q352.5734639248539 446.3455725742986 352.9216386217167 441.4394745730502Q353.23816107341014 436.56502881697094 353.23816107341014 429.6648393700537L353.23816107341014 429.6648393700537L353.23816107341014 349.07822316890116Q353.23816107341014 329.7387013704313 351.2440696277414 326.1619976662953L351.2440696277414 326.1619976662953Q349.6931096144435 322.8385119235141 327.1883632990391 322.8385119235141L327.1883632990391 322.8385119235141Q318.737213838824 322.8385119235141 314.0843337989303 324.2628629561346Q309.3998015138672 325.7188662339245 306.96257863582764 329.9602670866167Q304.4937035126187 334.17001569413964 302.27804635076455 342.65281739952405L302.27804635076455 342.65281739952405Q301.8349149183937 343.7606459804511 300.0623891889104 343.7606459804511L300.0623891889104 343.7606459804511Q296.26411976858896 343.7606459804511 294.71315975529103 342.1780337219839L294.71315975529103 342.1780337219839L298.9229083628139 310.3675273267921Q303.8290063640625 311.4753559077192 307.62727578438387 312.14005305627546Q311.39389295953595 312.8047502048317 314.3058995151157 312.8047502048317L314.3058995151157 312.8047502048317Q330.3219355708043 312.8047502048317 342.5713544513408 313.2478816372025Q354.78912108670806 313.69101306957333 363.01870483073776 313.69101306957333L363.01870483073776 313.69101306957333Q380.1742217125228 313.69101306957333 392.5185973285674 313.2478816372025Q404.862972944612 312.8047502048317 411.98472810771466 312.8047502048317L411.98472810771466 312.8047502048317Q414.8967346632944 312.8047502048317 418.6633518384465 312.14005305627546Q422.4616212587679 311.4753559077192 427.3677192600164 310.3675273267921L427.3677192600164 310.3675273267921L431.57746786753927 342.1780337219839Q430.02650785424134 343.7606459804511 426.22823843391996 343.7606459804511L426.22823843391996 343.7606459804511Q424.4557127044366 343.7606459804511 424.01258127206574 342.65281739952405L424.01258127206574 342.65281739952405Q422.018489826397 334.17001569413964 419.4546579676801 329.9602670866167Q416.89082610896315 325.7188662339245 412.20629382390007 324.2628629561346Q407.5534137840063 322.8385119235141 399.1022643237912 322.8385119235141L399.1022643237912 322.8385119235141Q375.7112551436452 322.8385119235141 374.6034265627181 326.1619976662953L374.6034265627181 326.1619976662953Q372.60933511704934 333.06218711321253 372.60933511704934 348.41352602034493L372.60933511704934 348.41352602034493L372.60933511704934 428.77857650531206Q372.60933511704934 441.6610402892356 374.6034265627181 449.4791448460638L374.6034265627181 449.4791448460638Q375.0465579950889 450.3654077108054 377.95856455066865 451.47323629173246Q380.8389188610791 452.5810648726596 384.1624046038603 453.24576202121585Q387.51754259181087 453.9104591697721 388.8469368889234 453.9104591697721L388.8469368889234 453.9104591697721Q389.733199753665 453.9104591697721 389.733199753665 457.26559715772265L389.733199753665 457.26559715772265Q389.733199753665 458.5949914548351 389.2900683212942 460.3675171843185L389.2900683212942 460.3675171843185Q378.18013026685406 459.9243857519477 371.7230722523077 459.5762110550849Q365.2660142377613 459.25968860339145 363.49348850827795 459.25968860339145L363.49348850827795 459.25968860339145Z " fill="#ffffff" transform="matrix(0.636201611296555,0,0,0.6362016112965548,0,54.82857827265016)"/><path d="M678.9008041748427 457.6138357796348L653.3611650711895 458.6729440363029Q652.513878465855 457.82565743096853 652.513878465855 455.49561926629866L652.513878465855 455.49561926629866Q652.513878465855 452.4998559117233 653.3611650711895 452.4998559117233L653.3611650711895 452.4998559117233Q655.2675599331919 452.4998559117233 658.475144939101 451.98543190134166Q661.6524697091054 451.4407476550552 664.4061511764423 450.3816393983871Q667.1900928796841 449.322531141719 667.6137361823514 448.26342288505094L667.6137361823514 448.26342288505094Q668.4610227876858 445.26765953047556 668.7938853826387 440.5773229652312Q669.0964877416867 435.91724663589156 669.0964877416867 429.32051520864474L669.0964877416867 429.32051520864474L669.0964877416867 352.2779545950179Q669.0964877416867 333.7889504571837 667.1900928796841 330.369543799941L667.1900928796841 330.369543799941Q665.7073413203489 327.1922190299368 644.1923135920343 327.1922190299368L644.1923135920343 327.1922190299368Q636.1128306054521 327.1922190299368 631.6645759274462 328.5539296456529Q627.1860610135354 329.94590049727384 624.8560228488657 334.0007721085173Q622.4957244482911 338.02538348385605 620.3775079349549 346.1351267063431L620.3775079349549 346.1351267063431Q619.9538646322876 347.1942349630112 618.2592914216187 347.1942349630112L618.2592914216187 347.1942349630112Q614.6280631130425 347.1942349630112 613.1453115537072 345.68122316777107L613.1453115537072 345.68122316777107L617.1699229290459 315.2696860834447Q621.8602594942902 316.3287943401128 625.4914878028665 316.9642592941136Q629.092455875538 317.59972424811446 631.8763975787798 317.59972424811446L631.8763975787798 317.59972424811446Q647.1880769466097 317.59972424811446 658.8987882417682 318.02336755078164Q670.579239301022 318.44701085344894 678.4469006362706 318.44701085344894L678.4469006362706 318.44701085344894Q694.8479484966736 318.44701085344894 706.6494404995465 318.02336755078164Q718.4509325024193 317.59972424811446 725.2594855809999 317.59972424811446L725.2594855809999 317.59972424811446Q728.0434272842416 317.59972424811446 731.6443953569132 316.9642592941136Q735.2756236654894 316.3287943401128 739.9659602307339 315.2696860834447L739.9659602307339 315.2696860834447L743.9905716060724 345.68122316777107Q742.5078200467373 347.1942349630112 738.876591738161 347.1942349630112L738.876591738161 347.1942349630112Q737.182018527492 347.1942349630112 736.7583752248248 346.1351267063431L736.7583752248248 346.1351267063431Q734.8519803628222 338.02538348385605 732.4009012545331 334.0007721085173Q729.9498221462442 329.94590049727384 725.4713072323335 328.5539296456529Q721.0230525543276 327.1922190299368 712.9435695677454 327.1922190299368L712.9435695677454 327.1922190299368Q690.5812552340963 327.1922190299368 689.5221469774283 330.369543799941L689.5221469774283 330.369543799941Q687.6157521154257 336.96627522718796 687.6157521154257 351.6424896410171L687.6157521154257 351.6424896410171L687.6157521154257 428.47322860331025Q687.6157521154257 440.7891446165648 689.5221469774283 448.26342288505094L689.5221469774283 448.26342288505094Q689.9457902800955 449.11070949038543 692.7297319833374 450.1698177470535Q695.4834134506743 451.2289260037216 698.6607382206786 451.8643909577224Q701.8683232265876 452.4998559117233 703.1392531345894 452.4998559117233L703.1392531345894 452.4998559117233Q703.9865397399237 452.4998559117233 703.9865397399237 455.70744091763225L703.9865397399237 455.70744091763225Q703.9865397399237 456.97837082563404 703.5628964372565 458.6729440363029L703.5628964372565 458.6729440363029Q692.941553634671 458.2493007336357 686.7684655100912 457.91643813868285Q680.5953773855116 457.6138357796348 678.9008041748427 457.6138357796348L678.9008041748427 457.6138357796348ZM763.3571225851459 459.5202306416374L763.3571225851459 459.5202306416374Q753.5830663878947 459.5202306416374 747.1981566119815 454.3154700660114Q740.8132468360683 449.11070949038543 740.8132468360683 438.6709281032286L740.8132468360683 438.6709281032286Q740.8132468360683 425.90110855140205 757.3958561118999 417.39798226215254L757.3958561118999 417.39798226215254Q764.6280524931477 413.76675395357626 771.7694681666811 411.6485374402401Q778.8806236043096 409.5303209269039 786.1128199855574 406.74637922366213L786.1128199855574 406.74637922366213Q788.0494750834647 406.11091426966135 788.0494750834647 403.5690544536579L788.0494750834647 403.5690544536579L788.0494750834647 387.62191013182706Q788.0494750834647 380.81335705324653 783.7827818208876 377.0913480369558Q779.5160885583103 373.3693390206652 773.5548220850643 373.3693390206652L773.5548220850643 373.3693390206652Q767.2001725450558 373.3693390206652 762.9334792824787 377.7268129909567Q758.6667860199017 382.0842869612482 758.6667860199017 389.10466169116233L758.6667860199017 389.10466169116233Q758.6667860199017 396.54867972374376 749.9518380793185 396.54867972374376L749.9518380793185 396.54867972374376Q743.7787499547388 396.54867972374376 741.6605334414027 392.4938081125003L741.6605334414027 392.4938081125003Q741.6605334414027 388.04555343449425 745.3825424576934 383.26443616153557Q749.1045514739841 378.4530586526719 755.0658179472301 374.4284472773332Q761.0270844204762 370.3735756660897 768.1382398581048 367.83171585008637Q775.279655531638 365.25959579817817 782.3000302615523 365.25959579817817L782.3000302615523 365.25959579817817Q793.980481320806 365.25959579817817 799.0944611887174 370.9182599123762Q804.2084410566291 376.54666379066936 804.2084410566291 389.10466169116233L804.2084410566291 389.10466169116233L804.2084410566291 438.24728480056143Q804.2084410566291 442.7257997144721 806.5384792212989 445.69130283314274Q808.8987776218736 448.68706618771813 812.9233889972123 448.68706618771813L812.9233889972123 448.68706618771813Q815.707330700454 448.68706618771813 820.3674070297935 445.69130283314274L820.3674070297935 445.69130283314274Q821.2146936351281 445.69130283314274 821.2146936351281 447.3858760438116L821.2146936351281 447.3858760438116Q821.2146936351281 450.1698177470535 820.1555853784599 451.8643909577224L820.1555853784599 451.8643909577224Q811.440637437877 459.3084089903038 805.2675493132973 459.3084089903038L805.2675493132973 459.3084089903038Q800.3653910967192 459.3084089903038 795.9171364187133 455.28379761496507Q791.4386215048027 451.2289260037216 789.7440482941337 446.7504110898108L789.7440482941337 446.7504110898108Q788.6849400374655 447.5976976951453 787.0811475345109 448.98966854676615Q785.4773550315566 450.3816393983871 784.4182467748884 451.2289260037216L784.4182467748884 451.2289260037216Q779.9397318609778 454.61807242505944 774.7349712853517 457.0691515333485Q769.5302107097256 459.5202306416374 763.3571225851459 459.5202306416374ZM771.4366055717281 447.3858760438116L771.4366055717281 447.3858760438116Q777.3978720449742 447.3858760438116 782.7236735642194 443.99672962247377Q788.0494750834647 440.5773229652312 788.0494750834647 436.76453324122605L788.0494750834647 436.76453324122605L788.0494750834647 414.8561224461492Q782.5118519128858 416.97433895948535 777.5189129885936 418.6689121701542Q772.4957138283963 420.3634853808232 769.5302107097256 421.452853873396L769.5302107097256 421.452853873396Q765.6871607498157 422.9356054327314 762.1769733848588 426.7483951567364Q758.6667860199017 430.5914451166464 758.6667860199017 435.49360333322437L758.6667860199017 435.49360333322437Q758.6667860199017 441.8785131091376 762.600616687526 444.63219457647466Q766.5344473551503 447.3858760438116 771.4366055717281 447.3858760438116ZM859.7359739419413 460.3675172469719L859.7359739419413 460.3675172469719Q853.1392425146945 460.3675172469719 847.8134409954492 458.8847656876366Q842.5178997121089 457.40201412830123 834.8317997922892 456.34290587163315L834.8317997922892 456.34290587163315Q833.9845131869546 453.98260747105854 833.1372265816202 449.9579960957199Q832.2899399762858 445.90312448447634 831.7452557299993 441.4548698064704Q831.2308317196176 436.97635489255964 831.2308317196176 434.19241318931785L831.2308317196176 434.19241318931785Q832.9254049302866 432.92148328131617 833.772691535621 432.92148328131617L833.772691535621 432.92148328131617Q836.9802765415301 432.92148328131617 837.1920981928637 434.19241318931785L837.1920981928637 434.19241318931785Q838.0393847981983 438.459106451895 841.428531219536 442.7257997144721Q844.8479378767787 446.9622327411444 849.7500960933568 449.83695515210064Q854.6219940740299 452.71167756305687 859.7359739419413 452.71167756305687L859.7359739419413 452.71167756305687Q866.544527020522 452.71167756305687 870.9020009908135 448.98966854676615Q875.2594749611052 445.26765953047556 875.2594749611052 438.24728480056143L875.2594749611052 438.24728480056143Q875.2594749611052 430.80326676798 869.5402903750975 425.90110855140205L869.5402903750975 425.90110855140205Q865.0617754611866 422.3001404787305 861.9752313988969 420.69634797577595Q858.888687336607 419.0925554728215 856.0139649256508 417.7308448571054Q853.1392425146945 416.33887400548446 848.9028094880222 413.76675395357626L848.9028094880222 413.76675395357626Q832.2899399762858 404.2045194076588 832.2899399762858 391.0110565531649L832.2899399762858 391.0110565531649Q832.2899399762858 383.3552168692499 836.5566332388629 377.5149913396231Q840.7930662655352 371.6445055740914 847.9344819390686 368.346139860468Q855.0456373766971 365.0477741468446 863.1553805991842 365.0477741468446L863.1553805991842 365.0477741468446Q865.485418763854 365.0477741468446 868.4509218825245 365.38063674179733Q871.4466852371 365.68323910084536 875.0476533097714 366.10688240351266L875.0476533097714 366.10688240351266Q878.6788816183476 366.7726075934183 881.0089197830176 367.1962508960855Q883.3692181835921 367.6198941987528 884.8519697429275 367.83171585008637L884.8519697429275 367.83171585008637Q887.1820079075973 377.60577204733755 887.3938295589309 389.52830499382964L887.3938295589309 389.52830499382964Q887.3938295589309 390.5874132504977 884.6401480915937 390.5874132504977L884.6401480915937 390.5874132504977Q881.6443847370184 390.5874132504977 881.4325630856848 389.10466169116233L881.4325630856848 389.10466169116233Q880.3734548290166 383.1433952179163 875.3805159047243 377.81759369867115Q870.3875769804318 372.4917921794259 864.0026672045186 372.4917921794259L864.0026672045186 372.4917921794259Q848.6607276007838 372.4917921794259 848.6607276007838 385.04979007991886L848.6607276007838 385.04979007991886Q848.6607276007838 388.25737508582796 849.4172334984038 390.7084541941169Q850.173739396024 393.12927306650107 852.9274208633609 395.2777498157421L852.9274208633609 395.2777498157421Q859.5241522906077 400.39172968365364 868.5719628261437 405.47544931566046Q877.6197733616797 410.589429183572 883.5810398349257 415.0679440974828L883.5810398349257 415.0679440974828Q892.5078094268423 421.8764971760633 892.5078094268423 431.0150884193136L892.5078094268423 431.0150884193136Q892.5078094268423 439.3063930572295 888.0292945129316 446.0241654280956Q883.5810398349257 452.71167756305687 876.1370218023443 456.55472752296674Q868.6627435338581 460.3675172469719 859.7359739419413 460.3675172469719ZM925.9151098657441 457.6138357796348L902.7055089267609 458.6729440363029Q901.8582223214263 457.82565743096853 901.8582223214263 455.0719759636315L901.8582223214263 455.0719759636315Q901.8582223214263 452.4998559117233 902.7055089267609 452.4998559117233L902.7055089267609 452.4998559117233Q904.4303423733346 452.4998559117233 907.3958454920052 451.8643909577224Q910.3916088465807 451.2289260037216 912.933468662584 450.1698177470535Q915.4753284785874 449.11070949038543 915.687150129921 448.26342288505094L915.687150129921 448.26342288505094Q916.5344367352556 445.26765953047556 916.8672993302083 441.4548698064704Q917.2001619251611 437.61181984656054 917.2001619251611 433.3451265839835L917.2001619251611 433.3451265839835L917.2001619251611 341.2329684897651Q917.2001619251611 334.0007721085173 915.8989717812545 327.615862332604L915.8989717812545 327.615862332604Q915.0516851759202 324.1964556753614 905.0658073273354 324.1964556753614L905.0658073273354 324.1964556753614L903.1291522294281 324.1964556753614Q901.8582223214263 324.1964556753614 901.8582223214263 321.86641751069163L901.8582223214263 321.86641751069163Q901.8582223214263 318.44701085344894 903.1291522294281 318.44701085344894L903.1291522294281 318.44701085344894Q913.992576919252 317.38790259678086 921.4365949518334 314.9368234884918Q928.8806129844148 312.51600461610764 931.6645546876567 311.0029928208676L931.6645546876567 311.0029928208676L932.7236629443247 310.3675278668667L933.1473062469919 310.3675278668667Q933.9945928523265 310.3675278668667 934.8418794576609 311.54767706715404Q935.6891660629955 312.72782626744123 935.9009877143288 313.78693452410937L935.9009877143288 313.78693452410937Q933.5709495496593 320.80730925402355 933.5709495496593 332.30619889784845L933.5709495496593 332.30619889784845L933.5709495496593 406.74637922366213Q937.8376428122364 405.89909261832764 938.8967510689043 404.83998436165956L938.8967510689043 404.83998436165956L948.6708072661555 396.54867972374376L956.3266469500705 390.1637699478304Q959.9578752586468 387.1982668291599 962.6207760182693 384.6261467772517Q965.2836767778921 382.0842869612482 965.2836767778921 379.96607044791205L965.2836767778921 379.96607044791205Q965.2836767778921 377.18212874467025 960.5933402126476 376.97030709333666L960.5933402126476 376.97030709333666Q956.3266469500705 376.75848544200306 955.6911819960698 376.12302048800217L955.6911819960698 376.12302048800217Q953.9966087854008 371.8563272254251 955.9030036474034 371.2208622714242L955.9030036474034 371.2208622714242L972.7276948104735 371.2208622714242Q980.1717128430547 371.2208622714242 984.8317891723945 370.797218968757Q989.5221257376387 370.3735756660897 996.1188571648858 370.1617540147561L996.1188571648858 370.1617540147561Q997.3897870728873 370.3735756660897 997.1779654215537 373.24829807704594Q996.9661437702201 376.12302048800217 995.9070355135519 376.12302048800217L995.9070355135519 376.12302048800217Q994.2124623028832 376.12302048800217 991.1259182405933 376.75848544200306Q988.0393741783033 377.39395039600385 985.2856927109664 378.1504562936239Q982.5017510077245 378.87670195533923 981.2308210997229 379.7239885606736L981.2308210997229 379.7239885606736Q978.9007829350531 381.0251787045801 973.2421188208551 385.26161173125246Q967.6137149425618 389.52830499382964 961.2288051666486 394.9448872207892Q954.8438953907352 400.39172968365364 949.7299155228237 405.47544931566046L949.7299155228237 405.47544931566046Q966.1309633832265 422.9356054327314 975.390595570096 433.55694823531695Q984.6199675210606 444.2085512738075 987.4039092243025 446.7504110898108L987.4039092243025 446.7504110898108Q991.0048772969741 449.7461744443862 996.5425004675527 451.34996694734076Q1002.0801236381316 452.92349921439046 1004.4101618028016 452.92349921439046L1004.4101618028016 452.92349921439046Q1005.2574484081359 452.92349921439046 1005.2574484081359 456.34290587163315L1005.2574484081359 456.34290587163315Q1005.2574484081359 458.4611223849693 1005.0456267568023 458.6729440363029L1005.0456267568023 458.6729440363029L981.8662860537237 457.6138357796348L959.7460536073132 458.6729440363029Q958.8987670019786 457.82565743096853 958.8987670019786 455.28379761496507L958.8987670019786 455.28379761496507Q958.8987670019786 452.92349921439046 959.7460536073132 452.92349921439046L959.7460536073132 452.92349921439046Q961.8642701206494 452.92349921439046 964.6482118238911 452.0762126090561Q967.4018932912282 451.2289260037216 967.4018932912282 450.1698177470535L967.4018932912282 450.1698177470535Q967.4018932912282 449.7461744443862 967.1900716398947 449.5343527930526L967.1900716398947 449.5343527930526L936.1128093656627 415.91523070281727L933.5709495496593 416.55069565681805L933.5709495496593 429.32051520864474Q933.5709495496593 436.34088993855886 934.1156337959457 441.12200721151754Q934.6300578063273 445.90312448447634 935.265522760328 448.26342288505094L935.265522760328 448.26342288505094Q935.6891660629955 449.11070949038543 938.2612861149036 450.1698177470535Q940.8031459309069 451.2289260037216 943.7686490495777 451.8643909577224Q946.764412404153 452.4998559117233 948.0353423121547 452.4998559117233L948.0353423121547 452.4998559117233Q948.6708072661555 452.4998559117233 948.8826289174891 455.0719759636315Q949.0944505688227 457.6138357796348 948.6708072661555 458.6729440363029L948.6708072661555 458.6729440363029L925.9151098657441 457.6138357796348ZM1034.2164941690316 457.6138357796348L1011.0068932300484 458.6729440363029Q1010.1596066247138 457.82565743096853 1010.1596066247138 455.0719759636315L1010.1596066247138 455.0719759636315Q1010.1596066247138 452.4998559117233 1011.0068932300484 452.4998559117233L1011.0068932300484 452.4998559117233Q1012.7317266766221 452.4998559117233 1015.6972297952929 451.8643909577224Q1018.6627329139634 451.2289260037216 1021.2348529658717 450.1698177470535Q1023.7767127818748 449.11070949038543 1023.9885344332087 448.26342288505094L1023.9885344332087 448.26342288505094Q1024.8358210385431 445.26765953047556 1025.1686836334957 441.4548698064704Q1025.471285992544 437.61181984656054 1025.471285992544 433.3451265839835L1025.471285992544 433.3451265839835L1025.471285992544 393.12927306650107Q1025.471285992544 385.04979007991886 1022.5057828738733 381.660643658581L1022.5057828738733 381.660643658581Q1020.3875663605371 379.0885236066728 1017.5128439495808 378.24123700133833Q1014.6381215386247 377.39395039600385 1012.3988640816693 377.3031696882894Q1010.1596066247138 377.18212874467025 1010.1596066247138 376.75848544200306L1010.1596066247138 376.75848544200306Q1010.1596066247138 371.6445055740914 1011.4305365327156 371.4326839227578L1011.4305365327156 371.4326839227578Q1022.7176045252069 369.73811071208894 1029.1932950088344 368.46718080408715Q1035.6992457283673 367.1962508960855 1039.0883921497048 366.348964290751L1039.0883921497048 366.348964290751L1041.8723338529467 365.68323910084536Q1042.719620458281 365.47141744951176 1042.9314421096146 367.2870316037999Q1043.1432637609482 369.10264575808804 1042.9314421096146 370.1617540147561L1042.9314421096146 370.1617540147561Q1042.5077988069474 373.1575173693315 1042.2959771556139 375.2757338826677Q1042.0841555042803 377.39395039600385 1042.0841555042803 378.6648803040055L1042.0841555042803 378.6648803040055Q1042.0841555042803 379.51216690934 1042.5077988069474 379.51216690934L1042.5077988069474 379.51216690934Q1042.719620458281 379.51216690934 1043.1432637609482 379.0885236066728L1043.1432637609482 379.0885236066728Q1048.0454219775265 374.004803974666 1056.4275073231565 369.40524811713607Q1064.8398529046917 364.83595249551087 1072.4956925886067 364.83595249551087L1072.4956925886067 364.83595249551087Q1081.0290791137609 364.83595249551087 1086.6574829920542 369.40524811713607Q1092.2858868703474 374.004803974666 1094.4343636195886 379.96607044791205L1094.4343636195886 379.96607044791205Q1110.593329592753 364.83595249551087 1127.3877605199182 364.83595249551087L1127.3877605199182 364.83595249551087Q1154.198329531573 364.83595249551087 1154.198329531573 405.68727096699405L1154.198329531573 405.68727096699405L1154.198329531573 429.32051520864474Q1154.198329531573 435.49360333322437 1154.6219728342403 440.1536796625639Q1155.0456161369075 444.84401622780825 1155.9231629781466 448.26342288505094L1155.9231629781466 448.26342288505094Q1156.3468062808138 449.11070949038543 1158.8886660968174 450.1698177470535Q1161.430525912821 451.2289260037216 1164.4262892673964 451.8643909577224Q1167.3917923860668 452.4998559117233 1168.6627222940688 452.4998559117233L1168.6627222940688 452.4998559117233Q1169.3284474839743 452.4998559117233 1169.5402691353079 455.0719759636315Q1169.7520907866415 457.6138357796348 1169.3284474839743 458.6729440363029L1169.3284474839743 458.6729440363029L1146.542489847658 457.6138357796348L1123.3631491445794 458.6729440363029Q1122.515862539245 457.82565743096853 1122.515862539245 455.0719759636315L1122.515862539245 455.0719759636315Q1122.515862539245 452.4998559117233 1123.3631491445794 452.4998559117233L1123.3631491445794 452.4998559117233Q1125.0577223552482 452.4998559117233 1128.0534857098237 451.8643909577224Q1131.0189888284945 451.2289260037216 1133.5608486444976 450.1698177470535Q1136.132968696406 449.11070949038543 1136.3447903477395 448.26342288505094L1136.3447903477395 448.26342288505094Q1137.1920769530743 445.26765953047556 1137.4946793121221 441.75747216551844Q1137.827541907075 438.24728480056143 1137.827541907075 434.6463167278899L1137.827541907075 434.6463167278899L1137.827541907075 410.589429183572Q1137.827541907075 377.81759369867115 1116.3427744146652 377.81759369867115L1116.3427744146652 377.81759369867115Q1111.2287945467538 377.81759369867115 1106.750279632843 380.0568511556265Q1102.3020249548372 382.2961086125818 1099.6391241952142 385.04979007991886Q1096.9762234355917 387.83373178316066 1096.9762234355917 389.9519482964968L1096.9762234355917 389.9519482964968Q1097.6116883895925 394.0068199077404 1097.823510040926 398.1524722266983Q1098.0353316922601 402.2981245456562 1098.0353316922601 407.20028276223417L1098.0353316922601 407.20028276223417L1098.0353316922601 431.2269100706472Q1098.0353316922601 436.55271158989245 1098.4589749949273 440.69836390885035Q1098.8826182975945 444.84401622780825 1099.7299049029289 448.26342288505094L1099.7299049029289 448.26342288505094Q1100.153548205596 449.11070949038543 1102.7256682575044 450.1698177470535Q1105.2675280735075 451.2289260037216 1108.263291428083 451.8643909577224Q1111.2287945467538 452.4998559117233 1112.4997244547553 452.4998559117233L1112.4997244547553 452.4998559117233Q1113.135189408756 452.4998559117233 1113.3470110600902 455.0719759636315Q1113.5588327114233 457.6138357796348 1113.135189408756 458.6729440363029L1113.135189408756 458.6729440363029L1090.379492008345 457.6138357796348L1067.2001513052664 458.6729440363029Q1066.3226044640269 457.82565743096853 1066.3226044640269 455.0719759636315L1066.3226044640269 455.0719759636315Q1066.3226044640269 452.4998559117233 1067.2001513052664 452.4998559117233L1067.2001513052664 452.4998559117233Q1068.8947245159352 452.4998559117233 1071.860227634606 451.8643909577224Q1074.8559909891815 451.2289260037216 1077.3978508051846 450.1698177470535Q1079.9397106211882 449.11070949038543 1080.1515322725218 448.26342288505094L1080.1515322725218 448.26342288505094Q1081.0290791137609 445.26765953047556 1081.3316814728091 441.4548698064704Q1081.664544067762 437.61181984656054 1081.664544067762 433.3451265839835L1081.664544067762 433.3451265839835L1081.664544067762 411.6485374402401Q1081.664544067762 377.81759369867115 1061.2388848320202 377.81759369867115L1061.2388848320202 377.81759369867115Q1056.972191569443 377.81759369867115 1052.4936766555325 380.0568511556265Q1048.0454219775265 382.2961086125818 1044.9588779152364 385.59447432620533Q1041.8723338529467 388.89284003982874 1041.8723338529467 391.8583431584994L1041.8723338529467 391.8583431584994L1041.8723338529467 429.32051520864474Q1041.8723338529467 435.49360333322437 1042.2959771556139 440.1536796625639Q1042.719620458281 444.84401622780825 1043.5669070636159 448.26342288505094L1043.5669070636159 448.26342288505094Q1043.990550366283 449.11070949038543 1046.562670418191 450.1698177470535Q1049.1045302341945 451.2289260037216 1052.0700333528653 451.8643909577224Q1055.0657967074403 452.4998559117233 1056.3367266154423 452.4998559117233L1056.3367266154423 452.4998559117233Q1056.972191569443 452.4998559117233 1057.1840132207767 455.0719759636315Q1057.3958348721103 457.6138357796348 1056.972191569443 458.6729440363029L1056.972191569443 458.6729440363029L1034.2164941690316 457.6138357796348ZM1205.489429390213 459.5202306416374L1205.489429390213 459.5202306416374Q1195.6851129570568 459.5202306416374 1189.3304634170486 454.3154700660114Q1182.9455536411351 449.11070949038543 1182.9455536411351 438.6709281032286L1182.9455536411351 438.6709281032286Q1182.9455536411351 425.90110855140205 1199.5281629169667 417.39798226215254L1199.5281629169667 417.39798226215254Q1206.7603592982146 413.76675395357626 1213.9017749717482 411.6485374402401Q1221.0129304093766 409.5303209269039 1228.2451267906245 406.74637922366213L1228.2451267906245 406.74637922366213Q1230.1817818885315 406.11091426966135 1230.1817818885315 403.5690544536579L1230.1817818885315 403.5690544536579L1230.1817818885315 387.62191013182706Q1230.1817818885315 380.81335705324653 1225.9150886259545 377.0913480369558Q1221.6483953633774 373.3693390206652 1215.6871288901316 373.3693390206652L1215.6871288901316 373.3693390206652Q1209.3022191142181 373.3693390206652 1205.0657860875458 377.7268129909567Q1200.7990928249687 382.0842869612482 1200.7990928249687 389.10466169116233L1200.7990928249687 389.10466169116233Q1200.7990928249687 396.54867972374376 1192.0841448843858 396.54867972374376L1192.0841448843858 396.54867972374376Q1185.911056759806 396.54867972374376 1183.7928402464695 392.4938081125003L1183.7928402464695 392.4938081125003Q1183.7928402464695 388.04555343449425 1187.5148492627604 383.26443616153557Q1191.236858279051 378.4530586526719 1197.1981247522972 374.4284472773332Q1203.159391225543 370.3735756660897 1210.270546663172 367.83171585008637Q1217.411962336705 365.25959579817817 1224.4323370666193 365.25959579817817L1224.4323370666193 365.25959579817817Q1236.112788125873 365.25959579817817 1241.2267679937845 370.9182599123762Q1246.340747861696 376.54666379066936 1246.340747861696 389.10466169116233L1246.340747861696 389.10466169116233L1246.340747861696 438.24728480056143Q1246.340747861696 442.7257997144721 1248.670786026366 445.69130283314274Q1251.0310844269407 448.68706618771813 1255.0556958022794 448.68706618771813L1255.0556958022794 448.68706618771813Q1257.8396375055208 448.68706618771813 1262.4997138348608 445.69130283314274L1262.4997138348608 445.69130283314274Q1263.3470004401952 445.69130283314274 1263.3470004401952 447.3858760438116L1263.3470004401952 447.3858760438116Q1263.3470004401952 450.1698177470535 1262.2878921835272 451.8643909577224L1262.2878921835272 451.8643909577224Q1253.5729442429438 459.3084089903038 1247.3998561183644 459.3084089903038L1247.3998561183644 459.3084089903038Q1242.497697901786 459.3084089903038 1238.0494432237801 455.28379761496507Q1233.5709283098695 451.2289260037216 1231.8763550992007 446.7504110898108L1231.8763550992007 446.7504110898108Q1230.8172468425323 447.5976976951453 1229.2134543395782 448.98966854676615Q1227.6096618366237 450.3816393983871 1226.5505535799552 451.2289260037216L1226.5505535799552 451.2289260037216Q1222.0720386660446 454.61807242505944 1216.8672780904185 457.0691515333485Q1211.6625175147924 459.5202306416374 1205.489429390213 459.5202306416374ZM1213.5689123767952 447.3858760438116L1213.5689123767952 447.3858760438116Q1219.5301788500415 447.3858760438116 1224.8559803692865 443.99672962247377Q1230.1817818885315 440.5773229652312 1230.1817818885315 436.76453324122605L1230.1817818885315 436.76453324122605L1230.1817818885315 414.8561224461492Q1224.644158717953 416.97433895948535 1219.6209595577557 418.6689121701542Q1214.6280206334632 420.3634853808232 1211.6625175147924 421.452853873396L1211.6625175147924 421.452853873396Q1207.819467554883 422.9356054327314 1204.3092801899256 426.7483951567364Q1200.7990928249687 430.5914451166464 1200.7990928249687 435.49360333322437L1200.7990928249687 435.49360333322437Q1200.7990928249687 441.8785131091376 1204.7329234925928 444.63219457647466Q1208.6667541602174 447.3858760438116 1213.5689123767952 447.3858760438116ZM1294.8479060170944 457.6138357796348L1271.6685653140157 458.6729440363029Q1270.7910184727766 457.82565743096853 1270.7910184727766 455.0719759636315L1270.7910184727766 455.0719759636315Q1270.7910184727766 452.4998559117233 1271.6685653140157 452.4998559117233L1271.6685653140157 452.4998559117233Q1273.3631385246845 452.4998559117233 1276.3286416433552 451.8643909577224Q1279.3244049979307 451.2289260037216 1281.8662648139343 450.1698177470535Q1284.4081246299374 449.11070949038543 1284.6502065171758 448.26342288505094L1284.6502065171758 448.26342288505094Q1285.4974931225101 445.26765953047556 1285.8000954815584 441.4548698064704Q1286.1329580765114 437.61181984656054 1286.1329580765114 433.3451265839835L1286.1329580765114 433.3451265839835L1286.1329580765114 393.12927306650107Q1286.1329580765114 385.04979007991886 1283.1371947219359 381.660643658581L1283.1371947219359 381.660643658581Q1281.0189782085995 379.0885236066728 1278.1442557976434 378.24123700133833Q1275.2695333866873 377.39395039600385 1273.030275929732 377.3031696882894Q1270.7910184727766 377.18212874467025 1270.7910184727766 376.75848544200306L1270.7910184727766 376.75848544200306Q1270.7910184727766 371.6445055740914 1272.092208616683 371.4326839227578L1272.092208616683 371.4326839227578Q1283.3490163732695 369.73811071208894 1290.3693911031837 368.346139860468Q1297.389765833098 366.9844292447519 1299.1145992796714 366.5607859420847L1299.1145992796714 366.5607859420847L1302.5037457010094 365.68323910084536Q1303.3510323063438 365.47141744951176 1303.5628539576774 367.40807254741907Q1303.774675609011 369.31446740942164 1303.5628539576774 370.1617540147561L1303.5628539576774 370.1617540147561Q1303.1392106550102 373.1575173693315 1302.9273890036766 375.2757338826677Q1302.715567352343 377.39395039600385 1302.715567352343 378.6648803040055L1302.715567352343 378.6648803040055Q1302.715567352343 379.51216690934 1303.1392106550102 379.51216690934L1303.1392106550102 379.51216690934Q1303.3510323063438 379.51216690934 1303.774675609011 379.0885236066728L1303.774675609011 379.0885236066728Q1308.6768338255888 374.004803974666 1317.089179407124 369.40524811713607Q1325.5015249886592 364.83595249551087 1333.1573646725742 364.83595249551087L1333.1573646725742 364.83595249551087Q1348.0454007377366 364.83595249551087 1354.0066672109829 375.4875555340013Q1359.9679336842291 386.10889833658695 1359.9679336842291 409.9539642295712L1359.9679336842291 409.9539642295712L1359.9679336842291 429.32051520864474Q1359.9679336842291 435.49360333322437 1360.3915769868963 440.1536796625639Q1360.8152202895635 444.84401622780825 1361.662506894898 448.26342288505094L1361.662506894898 448.26342288505094Q1362.086150197565 449.11070949038543 1364.6280100135687 450.1698177470535Q1367.2001300654765 451.2289260037216 1370.1656331841473 451.8643909577224Q1373.1613965387228 452.4998559117233 1374.4323264467243 452.4998559117233L1374.4323264467243 452.4998559117233Q1375.0677914007251 452.4998559117233 1375.2796130520592 455.0719759636315Q1375.4914347033928 457.6138357796348 1375.0677914007251 458.6729440363029L1375.0677914007251 458.6729440363029L1352.281833764409 457.6138357796348L1329.949779666665 458.6729440363029Q1329.1024930613303 457.82565743096853 1329.1024930613303 455.0719759636315L1329.1024930613303 455.0719759636315Q1329.1024930613303 452.4998559117233 1329.949779666665 452.4998559117233L1329.949779666665 452.4998559117233Q1331.6443528773339 452.4998559117233 1334.4282945805758 451.8643909577224Q1337.181976047913 451.2289260037216 1339.5422744484872 450.1698177470535Q1341.8723126131572 449.11070949038543 1342.0841342644908 448.26342288505094L1342.0841342644908 448.26342288505094Q1342.9314208698252 445.26765953047556 1343.2642834647781 441.4548698064704Q1343.566885823826 437.61181984656054 1343.566885823826 433.3451265839835L1343.566885823826 433.3451265839835L1343.566885823826 412.0721807429074Q1343.566885823826 392.2819864611666 1338.4529059559145 385.04979007991886Q1333.3691863239078 377.81759369867115 1321.870296680083 377.81759369867115L1321.870296680083 377.81759369867115Q1317.3917817661722 377.81759369867115 1312.9435270881659 380.26867280696007Q1308.4650121742552 382.7197519152491 1305.499509055585 385.89707668525335Q1302.5037457010094 389.10466169116233 1302.5037457010094 391.8583431584994L1302.5037457010094 391.8583431584994L1302.5037457010094 429.32051520864474Q1302.5037457010094 435.49360333322437 1302.9273890036766 440.1536796625639Q1303.3510323063438 444.84401622780825 1304.1983189116781 448.26342288505094L1304.1983189116781 448.26342288505094Q1304.6219622143453 449.11070949038543 1307.1940822662536 450.1698177470535Q1309.7359420822572 451.2289260037216 1312.7317054368323 451.8643909577224Q1315.697208555503 452.4998559117233 1316.9681384635046 452.4998559117233L1316.9681384635046 452.4998559117233Q1317.6036034175058 452.4998559117233 1317.8154250688394 455.0719759636315Q1318.027246720173 457.6138357796348 1317.6036034175058 458.6729440363029L1317.6036034175058 458.6729440363029L1294.8479060170944 457.6138357796348Z " fill="#ffffff" transform="matrix(0.636201611296555,0,0,0.6362016112965548,0,54.82857827265016)"/></g></svg>